<svg width="380" height="377" viewBox="0 0 380 377" fill="none" xmlns="http://www.w3.org/2000/svg">
<mask id="mask0_19_210" style="mask-type:alpha" maskUnits="userSpaceOnUse" x="55" y="57" width="276" height="275">
<ellipse cx="192.847" cy="194.431" rx="137.348" ry="137.416" transform="rotate(50.7445 192.847 194.431)" fill="#D9D9D9"/>
</mask>
<g mask="url(#mask0_19_210)">
<path d="M-40.8126 246.354C-18.1611 259.011 -26.2484 272.286 -3.5968 284.943C19.0548 297.601 27.1421 284.326 49.7871 296.98C72.4321 309.634 64.3513 322.912 87.0029 335.569C109.654 348.227 117.742 334.952 140.393 347.61C163.045 360.267 154.958 373.542 177.616 386.203C200.274 398.864 208.354 385.586 231.006 398.243" stroke="#1E1E1E" stroke-miterlimit="10"/>
<path d="M120.796 -14.2502C143.447 -1.59278 135.36 11.6818 158.011 24.3393C180.663 36.9967 188.75 23.7221 211.395 36.376C234.04 49.0298 225.959 62.308 248.611 74.9655C271.263 87.623 279.35 74.3484 302.001 87.0058C324.653 99.6633 316.566 112.938 339.224 125.599C361.882 138.26 369.963 124.982 392.614 137.639" stroke="#1E1E1E" stroke-miterlimit="10"/>
<path d="M20.1339 151.542C42.7855 164.199 34.6982 177.474 57.3497 190.131C80.0013 202.789 88.0886 189.514 110.734 202.168C133.379 214.822 125.298 228.1 147.949 240.757C170.601 253.415 178.688 240.14 201.34 252.798C223.991 265.455 215.904 278.73 238.562 291.391C261.22 304.052 269.301 290.774 291.953 303.431" stroke="#1E1E1E" stroke-miterlimit="10"/>
<path d="M71.3445 67.364C93.996 80.0215 85.9087 93.2961 108.56 105.954C131.212 118.611 139.299 105.336 161.944 117.99C184.589 130.644 176.508 143.922 199.16 156.58C221.812 169.237 229.899 155.963 252.55 168.62C275.202 181.278 267.115 194.552 289.773 207.213C312.431 219.874 320.512 206.596 343.163 219.254" stroke="#1E1E1E" stroke-miterlimit="10"/>
<path d="M-31.3363 233.444C-8.68479 246.102 -16.7721 259.376 5.87945 272.034C28.531 284.691 36.6183 271.416 59.2634 284.07C81.9084 296.724 73.8276 310.002 96.4792 322.66C119.131 335.317 127.218 322.043 149.87 334.7C172.521 347.358 164.434 360.632 187.092 373.293C209.75 385.954 217.831 372.676 240.482 385.334" stroke="#1E1E1E" stroke-miterlimit="10"/>
<path d="M93.8538 26.5911C116.505 39.2485 108.418 52.5231 131.07 65.1806C153.721 77.838 161.808 64.5635 184.453 77.2173C207.099 89.8711 199.018 103.149 221.669 115.807C244.321 128.464 252.408 115.19 275.06 127.847C297.711 140.505 289.624 153.779 312.282 166.44C334.94 179.101 343.021 165.823 365.672 178.481" stroke="#1E1E1E" stroke-miterlimit="10"/>
<path d="M-6.64734 192.064C16.0042 204.722 7.91691 217.996 30.5685 230.654C53.22 243.311 61.3073 230.037 83.9524 242.69C106.597 255.344 98.5166 268.622 121.168 281.28C143.82 293.937 151.907 280.663 174.559 293.32C197.21 305.978 189.123 319.252 211.781 331.913C234.439 344.575 242.52 331.296 265.171 343.954" stroke="#1E1E1E" stroke-miterlimit="10"/>
<path d="M44.4028 108.205C67.0543 120.863 58.967 134.137 81.6186 146.795C104.27 159.452 112.357 146.177 135.002 158.831C157.648 171.485 149.567 184.763 172.218 197.421C194.87 210.078 202.957 196.804 225.609 209.461C248.26 222.119 240.173 235.393 262.831 248.054C285.489 260.715 293.57 247.437 316.221 260.095" stroke="#1E1E1E" stroke-miterlimit="10"/>
<path d="M-58.2781 274.285C-35.6265 286.943 -43.7138 300.217 -21.0623 312.875C1.58929 325.532 9.6766 312.258 32.3216 324.912C54.9667 337.565 46.8859 350.844 69.5374 363.501C92.189 376.159 100.276 362.884 122.928 375.541C145.579 388.199 137.492 401.474 160.15 414.135C182.808 426.796 190.889 413.518 213.541 426.175" stroke="#1E1E1E" stroke-miterlimit="10"/>
<path d="M125.848 -20.2656C148.5 -7.60816 140.412 5.66643 163.064 18.3239C185.716 30.9814 193.803 17.7068 216.448 30.3606C239.093 43.0144 231.012 56.2926 253.664 68.9501C276.315 81.6076 284.403 68.333 307.054 80.9904C329.706 93.6479 321.618 106.923 344.276 119.584C366.934 132.245 375.015 118.966 397.667 131.624" stroke="#1E1E1E" stroke-miterlimit="10"/>
<path d="M25.1866 145.527C47.8381 158.184 39.7508 171.459 62.4024 184.116C85.0539 196.774 93.1412 183.499 115.786 196.153C138.431 208.807 130.351 222.085 153.002 234.742C175.654 247.4 183.741 234.125 206.392 246.783C229.044 259.44 220.957 272.715 243.615 285.376C266.273 298.037 274.354 284.759 297.005 297.416" stroke="#1E1E1E" stroke-miterlimit="10"/>
<path d="M76.397 61.3489C99.0486 74.0063 90.9613 87.2809 113.613 99.9384C136.264 112.596 144.352 99.3213 166.997 111.975C189.642 124.629 181.561 137.907 204.213 150.565C226.864 163.222 234.951 149.947 257.603 162.605C280.255 175.262 272.167 188.537 294.825 201.198C317.483 213.859 325.564 200.581 348.216 213.238" stroke="#1E1E1E" stroke-miterlimit="10"/>
<path d="M-26.2837 227.429C-3.63211 240.087 -11.7194 253.361 10.9321 266.019C33.5837 278.676 41.671 265.402 64.316 278.055C86.9611 290.709 78.8803 303.987 101.532 316.645C124.183 329.302 132.271 316.028 154.922 328.685C177.574 341.343 169.487 354.617 192.145 367.278C214.803 379.94 222.883 366.661 245.535 379.319" stroke="#1E1E1E" stroke-miterlimit="10"/>
<path d="M98.9063 20.5757C121.558 33.2331 113.471 46.5077 136.122 59.1652C158.774 71.8227 166.861 58.5481 189.506 71.2019C212.151 83.8557 204.07 97.134 226.722 109.791C249.373 122.449 257.461 109.174 280.112 121.832C302.764 134.489 294.676 147.764 317.335 160.425C339.993 173.086 348.073 159.808 370.725 172.465" stroke="#1E1E1E" stroke-miterlimit="10"/>
<path d="M-1.5947 186.049C21.0569 198.706 12.9696 211.981 35.6211 224.638C58.2727 237.296 66.36 224.021 89.005 236.675C111.65 249.329 103.569 262.607 126.221 275.265C148.872 287.922 156.96 274.647 179.611 287.305C202.263 299.962 194.175 313.237 216.834 325.898C239.492 338.559 247.572 325.281 270.224 337.938" stroke="#1E1E1E" stroke-miterlimit="10"/>
<path d="M49.4555 102.19C72.1071 114.847 64.0198 128.122 86.6713 140.779C109.323 153.437 117.41 140.162 140.055 152.816C162.7 165.47 154.619 178.748 177.271 191.406C199.923 204.063 208.01 190.789 230.661 203.446C253.313 216.103 245.226 229.378 267.884 242.039C290.542 254.7 298.623 241.422 321.274 254.08" stroke="#1E1E1E" stroke-miterlimit="10"/>
<path d="M-53.2255 268.27C-30.574 280.928 -38.6613 294.202 -16.0097 306.86C6.64183 319.517 14.7291 306.243 37.3742 318.896C60.0192 331.55 51.9384 344.829 74.59 357.486C97.2415 370.143 105.329 356.869 127.98 369.526C150.632 382.184 142.545 395.458 165.203 408.119C187.861 420.781 195.942 407.502 218.593 420.16" stroke="#1E1E1E" stroke-miterlimit="10"/>
<path d="M134.217 -35.5447C156.869 -22.8872 148.781 -9.61262 171.433 3.04484C194.084 15.7023 202.172 2.42772 224.817 15.0815C247.462 27.7354 239.381 41.0136 262.033 53.6711C284.684 66.3285 292.771 53.0539 315.423 65.7114C338.075 78.3689 329.987 91.6434 352.645 104.305C375.303 116.966 383.384 103.687 406.036 116.345" stroke="#1E1E1E" stroke-miterlimit="10"/>
<path d="M33.5556 130.247C56.2071 142.905 48.1198 156.179 70.7714 168.837C93.4229 181.494 101.51 168.22 124.155 180.874C146.8 193.527 138.72 206.806 161.371 219.463C184.023 232.121 192.11 218.846 214.761 231.503C237.413 244.161 229.326 257.435 251.984 270.097C274.642 282.758 282.723 269.479 305.374 282.137" stroke="#1E1E1E" stroke-miterlimit="10"/>
<path d="M82.5864 46.6765C105.238 59.334 97.1506 72.6086 119.802 85.266C142.454 97.9235 150.541 84.6489 173.186 97.3027C195.831 109.957 187.75 123.235 210.402 135.892C233.053 148.55 241.141 135.275 263.792 147.933C286.444 160.59 278.357 173.865 301.015 186.526C323.673 199.187 331.753 185.909 354.405 198.566" stroke="#1E1E1E" stroke-miterlimit="10"/>
<path d="M-17.9145 212.15C4.73705 224.807 -3.35026 238.082 19.3013 250.739C41.9529 263.397 50.0402 250.122 72.6852 262.776C95.3302 275.43 87.2494 288.708 109.901 301.366C132.553 314.023 140.64 300.749 163.291 313.406C185.943 326.063 177.856 339.338 200.514 351.999C223.172 364.66 231.253 351.382 253.904 364.039" stroke="#1E1E1E" stroke-miterlimit="10"/>
<path d="M107.275 5.29639C129.927 17.9539 121.84 31.2284 144.491 43.8859C167.143 56.5434 175.23 43.2688 197.875 55.9226C220.52 68.5764 212.439 81.8547 235.091 94.5121C257.742 107.17 265.83 93.895 288.481 106.552C311.133 119.21 303.046 132.485 325.704 145.146C348.362 157.807 356.442 144.528 379.094 157.186" stroke="#1E1E1E" stroke-miterlimit="10"/>
<path d="M6.61391 171.089C29.2655 183.746 21.1782 197.021 43.8297 209.678C66.4813 222.336 74.5686 209.061 97.2136 221.715C119.859 234.369 111.778 247.647 134.429 260.304C157.081 272.962 165.168 259.687 187.82 272.345C210.471 285.002 202.384 298.277 225.042 310.938C247.7 323.599 255.781 310.321 278.433 322.978" stroke="#1E1E1E" stroke-miterlimit="10"/>
<path d="M57.8245 86.9109C80.4761 99.5684 72.3888 112.843 95.0403 125.5C117.692 138.158 125.779 124.883 148.424 137.537C171.069 150.191 162.988 163.469 185.64 176.127C208.292 188.784 216.379 175.509 239.03 188.167C261.682 200.824 253.595 214.099 276.253 226.76C298.911 239.421 306.992 226.143 329.643 238.8" stroke="#1E1E1E" stroke-miterlimit="10"/>
<path d="M-44.8563 252.991C-22.2048 265.648 -30.2921 278.923 -7.64054 291.58C15.011 304.238 23.0983 290.963 45.7434 303.617C68.3884 316.271 60.3076 329.549 82.9592 342.207C105.611 354.864 113.698 341.59 136.35 354.247C159.001 366.904 150.914 380.179 173.572 392.84C196.23 405.501 204.311 392.223 226.962 404.881" stroke="#1E1E1E" stroke-miterlimit="10"/>
<path d="M116.752 -7.61304C139.403 5.04443 131.316 18.319 153.967 30.9765C176.619 43.6339 184.706 30.3594 207.351 43.0132C229.996 55.667 221.916 68.9452 244.567 81.6027C267.219 94.2602 275.306 80.9856 297.958 93.643C320.609 106.3 312.522 119.575 335.18 132.236C357.838 144.897 365.919 131.619 388.57 144.277" stroke="#1E1E1E" stroke-miterlimit="10"/>
<path d="M16.0902 158.179C38.7417 170.837 30.6544 184.111 53.306 196.769C75.9575 209.426 84.0448 196.152 106.69 208.805C129.335 221.459 121.254 234.737 143.906 247.395C166.557 260.052 174.645 246.778 197.296 259.435C219.948 272.093 211.86 285.367 234.518 298.028C257.176 310.69 265.257 297.411 287.909 310.069" stroke="#1E1E1E" stroke-miterlimit="10"/>
<path d="M67.3009 74.0012C89.9524 86.6587 81.8651 99.9333 104.517 112.591C127.168 125.248 135.256 111.974 157.901 124.627C180.546 137.281 172.465 150.559 195.116 163.217C217.768 175.874 225.855 162.6 248.507 175.257C271.158 187.915 263.071 201.189 285.729 213.85C308.387 226.512 316.468 213.233 339.12 225.891" stroke="#1E1E1E" stroke-miterlimit="10"/>
<path d="M-35.3798 240.082C-12.7283 252.739 -20.8156 266.014 1.83597 278.671C24.4875 291.329 32.5748 278.054 55.2199 290.708C77.8649 303.362 69.7841 316.64 92.4357 329.297C115.087 341.955 123.175 328.68 145.826 341.338C168.478 353.995 160.39 367.27 183.048 379.931C205.706 392.592 213.787 379.314 236.439 391.971" stroke="#1E1E1E" stroke-miterlimit="10"/>
<path d="M89.8099 33.2283C112.461 45.8857 104.374 59.1603 127.026 71.8178C149.677 84.4753 157.765 71.2007 180.41 83.8545C203.055 96.5083 194.974 109.787 217.625 122.444C240.277 135.101 248.364 121.827 271.016 134.484C293.667 147.142 285.58 160.416 308.238 173.078C330.896 185.739 338.977 172.46 361.629 185.118" stroke="#1E1E1E" stroke-miterlimit="10"/>
<path d="M-10.6909 198.701C11.9607 211.359 3.87338 224.633 26.5249 237.291C49.1765 249.948 57.2638 236.674 79.9088 249.328C102.554 261.981 94.4731 275.26 117.125 287.917C139.776 300.575 147.863 287.3 170.515 299.957C193.167 312.615 185.079 325.89 207.737 338.551C230.395 351.212 238.476 337.934 261.128 350.591" stroke="#1E1E1E" stroke-miterlimit="10"/>
<path d="M40.3592 114.843C63.0107 127.5 54.9234 140.775 77.575 153.432C100.227 166.09 108.314 152.815 130.959 165.469C153.604 178.123 145.523 191.401 168.175 204.058C190.826 216.716 198.914 203.441 221.565 216.099C244.217 228.756 236.129 242.031 258.787 254.692C281.445 267.353 289.526 254.075 312.178 266.732" stroke="#1E1E1E" stroke-miterlimit="10"/>
<path d="M-62.3218 280.923C-39.6703 293.58 -47.7576 306.855 -25.106 319.512C-2.45446 332.17 5.63285 318.895 28.2779 331.549C50.9229 344.203 42.8421 357.481 65.4937 370.139C88.1452 382.796 96.2325 369.521 118.884 382.179C141.536 394.836 133.448 408.111 156.106 420.772C178.764 433.433 186.845 420.155 209.497 432.812" stroke="#1E1E1E" stroke-miterlimit="10"/>
<path d="M61.8684 80.2734C84.5199 92.9309 76.4326 106.205 99.0842 118.863C121.736 131.52 129.823 118.246 152.468 130.9C175.113 143.553 167.032 156.832 189.684 169.489C212.335 182.147 220.423 168.872 243.074 181.53C265.726 194.187 257.639 207.462 280.297 220.123C302.955 232.784 311.035 219.506 333.687 232.163" stroke="#1E1E1E" stroke-miterlimit="10"/>
<path d="M138.261 -42.1819C160.912 -29.5244 152.825 -16.2498 175.477 -3.59237C198.128 9.0651 206.215 -4.20949 228.86 8.44433C251.506 21.0982 243.425 34.3764 266.076 47.0339C288.728 59.6913 296.815 46.4167 319.467 59.0742C342.118 71.7316 334.031 85.0062 356.689 97.6673C379.347 110.328 387.428 97.0502 410.079 109.708" stroke="#1E1E1E" stroke-miterlimit="10"/>
<path d="M37.5994 123.61C60.2509 136.268 52.1636 149.542 74.8152 162.2C97.4667 174.857 105.554 161.583 128.199 174.236C150.844 186.89 142.763 200.168 165.415 212.826C188.066 225.483 196.154 212.209 218.805 224.866C241.457 237.524 233.37 250.798 256.028 263.459C278.686 276.12 286.766 262.842 309.418 275.5" stroke="#1E1E1E" stroke-miterlimit="10"/>
<path d="M86.6302 40.0393C109.282 52.6968 101.194 65.9714 123.846 78.6288C146.498 91.2863 154.585 78.0117 177.23 90.6655C199.875 103.319 191.794 116.598 214.446 129.255C237.097 141.913 245.185 128.638 267.836 141.295C290.488 153.953 282.4 167.227 305.058 179.889C327.717 192.55 335.797 179.271 358.449 191.929" stroke="#1E1E1E" stroke-miterlimit="10"/>
<path d="M-13.871 205.513C8.78055 218.17 0.693245 231.445 23.3448 244.102C45.9964 256.76 54.0837 243.485 76.7287 256.139C99.3737 268.793 91.2929 282.071 113.945 294.728C136.596 307.386 144.683 294.111 167.335 306.769C189.986 319.426 181.899 332.701 204.557 345.362C227.215 358.023 235.296 344.745 257.948 357.402" stroke="#1E1E1E" stroke-miterlimit="10"/>
<path d="M111.319 -1.34082C133.971 11.3166 125.883 24.5912 148.535 37.2487C171.186 49.9062 179.274 36.6316 201.919 49.2854C224.564 61.9392 216.483 75.2175 239.135 87.8749C261.786 100.532 269.873 87.2578 292.525 99.9152C315.177 112.573 307.089 125.847 329.747 138.508C352.405 151.17 360.486 137.891 383.138 150.549" stroke="#1E1E1E" stroke-miterlimit="10"/>
<path d="M10.6577 164.451C33.3093 177.108 25.222 190.383 47.8735 203.04C70.5251 215.698 78.6124 202.423 101.257 215.077C123.902 227.731 115.822 241.009 138.473 253.667C161.125 266.324 169.212 253.05 191.864 265.707C214.515 278.364 206.428 291.639 229.086 304.3C251.744 316.961 259.825 303.683 282.476 316.34" stroke="#1E1E1E" stroke-miterlimit="10"/>
<path d="M129.892 -26.9028C152.543 -14.2454 144.456 -0.970777 167.108 11.6867C189.759 24.3442 197.846 11.0696 220.491 23.7234C243.136 36.3772 235.056 49.6554 257.707 62.3129C280.359 74.9704 288.446 61.6958 311.098 74.3532C333.749 87.0107 325.662 100.285 348.32 112.946C370.978 125.608 379.059 112.329 401.71 124.987" stroke="#1E1E1E" stroke-miterlimit="10"/>
<path d="M29.2303 138.889C51.8819 151.547 43.7945 164.821 66.4461 177.479C89.0977 190.136 97.185 176.862 119.83 189.516C142.475 202.169 134.394 215.448 157.046 228.105C179.697 240.763 187.785 227.488 210.436 240.145C233.088 252.803 225 266.078 247.659 278.739C270.317 291.4 278.397 278.122 301.049 290.779" stroke="#1E1E1E" stroke-miterlimit="10"/>
<path d="M80.4408 54.7114C103.092 67.3689 95.0051 80.6435 117.657 93.3009C140.308 105.958 148.395 92.6838 171.041 105.338C193.686 117.991 185.605 131.27 208.256 143.927C230.908 156.585 238.995 143.31 261.647 155.967C284.298 168.625 276.211 181.9 298.869 194.561C321.527 207.222 329.608 193.944 352.259 206.601" stroke="#1E1E1E" stroke-miterlimit="10"/>
<path d="M-22.2401 220.792C0.411473 233.449 -7.67583 246.724 14.9757 259.381C37.6273 272.039 45.7146 258.764 68.3596 271.418C91.0047 284.072 82.9239 297.35 105.575 310.007C128.227 322.665 136.314 309.39 158.966 322.048C181.617 334.705 173.53 347.98 196.188 360.641C218.846 373.302 226.927 360.024 249.579 372.681" stroke="#1E1E1E" stroke-miterlimit="10"/>
<path d="M102.95 13.9382C125.602 26.5957 117.514 39.8703 140.166 52.5278C162.817 65.1852 170.905 51.9106 193.55 64.5644C216.195 77.2183 208.114 90.4965 230.766 103.154C253.417 115.811 261.504 102.537 284.156 115.194C306.808 127.852 298.72 141.126 321.378 153.787C344.036 166.449 352.117 153.17 374.769 165.828" stroke="#1E1E1E" stroke-miterlimit="10"/>
<path d="M2.44919 179.412C25.1007 192.069 17.0134 205.344 39.665 218.001C62.3165 230.659 70.4039 217.384 93.0489 230.038C115.694 242.692 107.613 255.97 130.265 268.627C152.916 281.285 161.004 268.01 183.655 280.668C206.307 293.325 198.219 306.6 220.877 319.261C243.536 331.922 251.616 318.644 274.268 331.301" stroke="#1E1E1E" stroke-miterlimit="10"/>
<path d="M53.4992 95.5525C76.1507 108.21 68.0634 121.485 90.715 134.142C113.367 146.799 121.454 133.525 144.099 146.179C166.744 158.833 158.663 172.111 181.315 184.768C203.966 197.426 212.054 184.151 234.705 196.809C257.357 209.466 249.269 222.741 271.927 235.402C294.586 248.063 302.666 234.785 325.318 247.442" stroke="#1E1E1E" stroke-miterlimit="10"/>
<path d="M-49.1817 261.633C-26.5301 274.29 -34.6175 287.565 -11.9659 300.222C10.6857 312.88 18.773 299.605 41.418 312.259C64.063 324.913 55.9823 338.191 78.6338 350.849C101.285 363.506 109.373 350.231 132.024 362.889C154.676 375.546 146.588 388.821 169.247 401.482C191.905 414.143 199.985 400.865 222.637 413.522" stroke="#1E1E1E" stroke-miterlimit="10"/>
</g>
</svg>
